<?xml version="1.0" encoding="UTF-8"?>
<!DOCTYPE svg PUBLIC "-//W3C//DTD SVG 1.1//EN" "http://www.w3.org/Graphics/SVG/1.1/DTD/svg11.dtd">
<svg xmlns="http://www.w3.org/2000/svg" version="1.1" width="115px" height="115px" style="shape-rendering:geometricPrecision; text-rendering:geometricPrecision; image-rendering:optimizeQuality; fill-rule:evenodd; clip-rule:evenodd" xmlns:xlink="http://www.w3.org/1999/xlink">
<g><path style="opacity:0.868" fill="#040302" d="M 55.5,15.5 C 57.1992,15.3398 58.8659,15.5065 60.5,16C 66.033,21.1983 71.1996,26.6983 76,32.5C 76.3333,38.1667 76.6667,43.8333 77,49.5C 82.8333,43.6667 88.6667,37.8333 94.5,32C 96.4727,31.5045 98.4727,31.3379 100.5,31.5C 101.605,43.4669 101.771,55.4669 101,67.5C 99.254,70.92 97.0874,74.0867 94.5,77C 95.5634,78.1882 96.8967,78.6882 98.5,78.5C 100.335,82.2124 99.3353,85.0457 95.5,87C 100.343,90.1934 100.343,93.0268 95.5,95.5C 83.5,96.8333 71.5,96.8333 59.5,95.5C 58.0663,94.7702 56.8996,93.7702 56,92.5C 54.786,94.0488 53.286,95.2155 51.5,96C 40.152,96.8325 28.8187,96.6658 17.5,95.5C 12.6575,93.0268 12.6575,90.1934 17.5,87C 13.6647,85.0457 12.6647,82.2124 14.5,78.5C 16.3464,78.7778 17.6798,78.1112 18.5,76.5C 16.1058,73.2808 13.9392,69.9475 12,66.5C 11.2305,54.8001 11.3972,43.1334 12.5,31.5C 14.5273,31.3379 16.5273,31.5045 18.5,32C 21.4852,36.8287 25.4852,40.3287 30.5,42.5C 31.264,45.787 33.0973,48.4537 36,50.5C 36.3333,44.8333 36.6667,39.1667 37,33.5C 42.4553,26.5415 48.622,20.5415 55.5,15.5 Z M 36.5,53.5 C 37.371,55.7767 37.0377,58.11 35.5,60.5C 35.1667,59.8333 34.8333,59.1667 34.5,58.5C 35.1869,56.8228 35.8535,55.1561 36.5,53.5 Z M 75.5,53.5 C 78.4135,55.39 78.9135,57.7233 77,60.5C 76.338,58.1873 75.838,55.854 75.5,53.5 Z M 55.5,71.5 C 56.3864,70.2241 57.3864,70.2241 58.5,71.5C 57.5754,72.5624 56.5754,72.5624 55.5,71.5 Z"/></g>
<g><path style="opacity:1" fill="#a77c4b" d="M 58.5,18.5 C 63.1026,23.6047 67.936,28.6047 73,33.5C 73.6667,39.8333 73.6667,46.1667 73,52.5C 68.4242,47.0133 64.0909,41.3467 60,35.5C 59.4693,29.8291 58.9693,24.1625 58.5,18.5 Z"/></g>
<g><path style="opacity:0.999" fill="#b68851" d="M 53.5,19.5 C 54.1174,19.6107 54.6174,19.944 55,20.5C 55.6667,25.8333 55.6667,31.1667 55,36.5C 50,41.8333 45,47.1667 40,52.5C 39.3333,46.5 39.3333,40.5 40,34.5C 45.0775,29.9276 49.5775,24.9276 53.5,19.5 Z"/></g>
<g><path style="opacity:0.999" fill="#8e683d" d="M 35.5,70.5 C 36.4345,71.5676 36.7678,72.901 36.5,74.5C 31.4889,74.6659 26.4889,74.4993 21.5,74C 19.4611,72.0737 17.7945,69.907 16.5,67.5C 16.1682,57.8104 16.5016,48.1437 17.5,38.5C 19.1965,39.3636 20.3632,40.6969 21,42.5C 21.0642,47.8071 22.0642,52.8071 24,57.5C 26.1396,59.6396 28.3063,61.8063 30.5,64C 31.448,64.4828 32.448,64.6495 33.5,64.5C 33.2978,66.9892 33.7978,69.3225 35,71.5C 35.3988,71.2716 35.5654,70.9382 35.5,70.5 Z"/></g>
<g><path style="opacity:0.999" fill="#a37849" d="M 35.5,70.5 C 35.5654,70.9382 35.3988,71.2716 35,71.5C 33.7978,69.3225 33.2978,66.9892 33.5,64.5C 32.448,64.6495 31.448,64.4828 30.5,64C 28.3063,61.8063 26.1396,59.6396 24,57.5C 22.0642,52.8071 21.0642,47.8071 21,42.5C 20.3632,40.6969 19.1965,39.3636 17.5,38.5C 16.5016,48.1437 16.1682,57.8104 16.5,67.5C 15.341,56.6745 15.1743,45.6745 16,34.5C 21.6667,40.1667 27.3333,45.8333 33,51.5C 31.7493,55.2317 31.2493,59.2317 31.5,63.5C 32.5,63.5 33.5,63.5 34.5,63.5C 34.9926,65.8056 35.3259,68.139 35.5,70.5 Z"/></g>
<g><path style="opacity:1" fill="#463bd1" d="M 55.5,58.5 C 55.8537,54.3628 55.3537,50.3628 54,46.5C 50.1228,49.5214 47.2895,53.188 45.5,57.5C 43.1414,56.6113 42.9747,55.278 45,53.5C 48.6667,49.8333 52.3333,46.1667 56,42.5C 56.8174,48.0164 56.6507,53.3497 55.5,58.5 Z"/></g>
<g><path style="opacity:0.996" fill="#111be2" d="M 55.5,58.5 C 55.6646,61.5184 55.498,64.5184 55,67.5C 51.6291,64.2975 48.4625,60.9641 45.5,57.5C 47.2895,53.188 50.1228,49.5214 54,46.5C 55.3537,50.3628 55.8537,54.3628 55.5,58.5 Z"/></g>
<g><path style="opacity:1" fill="#9e7347" d="M 72.5,58.5 C 73.4881,63.6405 73.8214,68.9738 73.5,74.5C 69.1539,74.6657 64.8206,74.499 60.5,74C 64.6297,68.8936 68.6297,63.7269 72.5,58.5 Z"/></g>
<g><path style="opacity:1" fill="#8b663c" d="M 96.5,34.5 C 97.6593,45.6591 97.8259,56.9924 97,68.5C 95.8589,70.6089 94.3589,72.4422 92.5,74C 87.5111,74.4993 82.5111,74.6659 77.5,74.5C 77.8948,68.9209 79.2281,63.5876 81.5,58.5C 81.6353,56.192 80.9686,54.192 79.5,52.5C 85.1883,46.4796 90.8549,40.4796 96.5,34.5 Z"/></g>
<g><path style="opacity:1" fill="#e51e1a" d="M 60.5,44.5 C 64.0786,47.4811 67.0786,50.9811 69.5,55C 66.0135,59.1553 62.5135,63.322 59,67.5C 59.0459,59.823 59.5459,52.1563 60.5,44.5 Z"/></g>
<g><path style="opacity:1" fill="#9b7244" d="M 39.5,58.5 C 44.9475,63.1161 49.9475,68.2827 54.5,74C 49.5111,74.4993 44.5111,74.6659 39.5,74.5C 39.5,69.1667 39.5,63.8333 39.5,58.5 Z"/></g>
<g><path style="opacity:1" fill="#8c663e" d="M 21.5,78.5 C 32.8382,78.3335 44.1716,78.5001 55.5,79C 56.3802,80.3561 56.7135,81.8561 56.5,83.5C 43.4957,83.6666 30.4957,83.4999 17.5,83C 19.0414,81.6288 20.3747,80.1288 21.5,78.5 Z"/></g>
<g><path style="opacity:1" fill="#916940" d="M 60.5,78.5 C 70.8387,78.3335 81.172,78.5002 91.5,79C 92.8333,80.3333 94.1667,81.6667 95.5,83C 84.5,83.6667 73.5,83.6667 62.5,83C 61.4178,81.6703 60.7512,80.1703 60.5,78.5 Z"/></g>
<g><path style="opacity:1" fill="#8b633c" d="M 21.5,86.5 C 33.1714,86.3335 44.8381,86.5001 56.5,87C 55.1667,88.3333 53.8333,89.6667 52.5,91C 40.8333,91.6667 29.1667,91.6667 17.5,91C 19.0414,89.6288 20.3747,88.1288 21.5,86.5 Z"/></g>
<g><path style="opacity:1" fill="#8b633c" d="M 61.5,86.5 C 71.5056,86.3335 81.5056,86.5002 91.5,87C 92.8333,88.3333 94.1667,89.6667 95.5,91C 83.4861,91.8326 71.4861,91.6659 59.5,90.5C 60.1799,89.1401 60.8466,87.8068 61.5,86.5 Z"/></g>
</svg>
